<svg id="SvgjsSvg1018" width="288" height="288" xmlns="http://www.w3.org/2000/svg" version="1.1" xmlns:xlink="http://www.w3.org/1999/xlink" xmlns:svgjs="http://svgjs.com/svgjs"><defs id="SvgjsDefs1019"></defs><g id="SvgjsG1020"><svg xmlns="http://www.w3.org/2000/svg" width="288" height="288" version="1.0" viewBox="0 0 3543 2619"><g transform="matrix(.1 0 0 -.1 0 2619)" fill="#ffffff" class="color000 svgShape"><path d="M2340 25044c-81-17-209-80-275-134-235-195-310-525-181-795 70-147 174-251 321-321 319-153 714-18 870 298 25 51 52 125 60 163 87 416-232 808-655 804-41 0-104-7-140-15zM6680 25044c-81-17-209-80-275-134-152-127-245-321-245-515 0-198 101-406 253-521 217-164 472-188 715-69 316 156 451 551 298 870-46 97-115 185-189 241-164 124-363 170-557 128zM11020 25044c-81-17-209-80-275-134-235-195-310-525-181-795 70-147 174-251 321-321 319-153 714-18 870 298 25 51 52 125 60 163 87 416-232 808-655 804-41 0-104-7-140-15zM15360 25044c-81-17-209-80-275-134-235-195-310-525-181-795 70-147 174-251 321-321 319-153 714-18 870 298 25 51 52 125 60 163 87 416-232 808-655 804-41 0-104-7-140-15zM19700 25044c-81-17-209-80-275-134-235-195-310-525-181-795 70-147 174-251 321-321 319-153 714-18 870 298 25 51 52 125 60 163 87 416-232 808-655 804-41 0-104-7-140-15zM24040 25044c-81-17-209-80-275-134-235-195-310-525-181-795 70-147 174-251 321-321 319-153 714-18 870 298 25 51 52 125 60 163 87 416-232 808-655 804-41 0-104-7-140-15zM28380 25044c-81-17-209-80-275-134-235-195-310-525-181-795 70-147 174-251 321-321 319-153 714-18 870 298 25 51 52 125 60 163 87 416-232 808-655 804-41 0-104-7-140-15zM32735 25050c-235-50-421-215-502-445-25-73-28-92-27-215 0-119 3-144 26-208 38-105 83-176 163-257 80-80 151-125 257-163 66-24 86-27 213-27 127 0 147 3 213 27 106 38 177 83 257 163 80 80 125 151 163 257 24 66 27 86 27 213 0 127-3 147-27 213-38 106-83 177-163 257-131 130-258 185-445 191-63 2-133-1-155-6zM2340 20704c-81-17-209-80-275-134-235-195-310-525-181-795 70-147 174-251 321-321 319-153 714-18 870 298 25 51 52 125 60 163 87 416-232 808-655 804-41 0-104-7-140-15zM6680 20704c-81-17-209-80-275-134-235-195-310-525-181-795 70-147 174-251 321-321 319-153 714-18 870 298 25 51 52 125 60 163 87 416-232 808-655 804-41 0-104-7-140-15zM11020 20704c-81-17-209-80-275-134-152-127-245-321-245-515 0-198 101-406 253-521 217-164 472-188 715-69 316 156 451 551 298 870-70 147-174 251-321 321-127 61-283 79-425 48zM15360 20704c-81-17-209-80-275-134-152-127-245-321-245-515 0-198 101-406 253-521 217-164 472-188 715-69 316 156 451 551 298 870-70 147-174 251-321 321-127 61-283 79-425 48zM19700 20704c-81-17-209-80-275-134-152-127-245-321-245-515 0-198 101-406 253-521 217-164 472-188 715-69 316 156 451 551 298 870-70 147-174 251-321 321-127 61-283 79-425 48zM24040 20704c-81-17-209-80-275-134-235-195-310-525-181-795 70-147 174-251 321-321 319-153 714-18 870 298 25 51 52 125 60 163 87 416-232 808-655 804-41 0-104-7-140-15zM28380 20704c-81-17-209-80-275-134-235-195-310-525-181-795 70-147 174-251 321-321 319-153 714-18 870 298 25 51 52 125 60 163 87 416-232 808-655 804-41 0-104-7-140-15zM32720 20704c-81-17-209-80-275-134-235-195-310-525-181-795 70-147 174-251 321-321 319-153 714-18 870 298 25 51 52 125 60 163 87 416-232 808-655 804-41 0-104-7-140-15zM2380 16364c-81-17-209-80-275-134-235-195-310-525-181-795 70-147 174-251 321-321 319-153 714-18 870 298 25 51 52 125 60 163 87 416-232 808-655 804-41 0-104-7-140-15zM6720 16364c-81-17-209-80-275-134-235-195-310-525-181-795 70-147 174-251 321-321 319-153 714-18 870 298 25 51 52 125 60 163 87 416-232 808-655 804-41 0-104-7-140-15zM11060 16364c-81-17-209-80-275-134-235-195-310-525-181-795 70-147 174-251 321-321 319-153 714-18 870 298 25 51 52 125 60 163 87 416-232 808-655 804-41 0-104-7-140-15zM15400 16364c-81-17-209-80-275-134-235-195-310-525-181-795 70-147 174-251 321-321 319-153 714-18 870 298 25 51 52 125 60 163 87 416-232 808-655 804-41 0-104-7-140-15zM19740 16364c-81-17-209-80-275-134-235-195-310-525-181-795 70-147 174-251 321-321 319-153 714-18 870 298 25 51 52 125 60 163 87 416-232 808-655 804-41 0-104-7-140-15zM24080 16364c-81-17-209-80-275-134-235-195-310-525-181-795 70-147 174-251 321-321 319-153 714-18 870 298 25 51 52 125 60 163 87 416-232 808-655 804-41 0-104-7-140-15zM28420 16364c-81-17-209-80-275-134-235-195-310-525-181-795 70-147 174-251 321-321 319-153 714-18 870 298 25 51 52 125 60 163 87 416-232 808-655 804-41 0-104-7-140-15zM32775 16370c-235-50-421-215-502-445-25-73-28-92-27-215 0-119 3-144 26-208 38-105 83-176 163-257 80-80 151-125 257-163 66-24 86-27 213-27 127 0 147 3 213 27 106 38 177 83 257 163 80 80 125 151 163 257 24 66 27 86 27 213 0 127-3 147-27 213-38 106-83 177-163 257-131 130-258 185-445 191-63 2-133-1-155-6zM2380 12024c-81-17-209-80-275-134-235-195-310-525-181-795 70-147 174-251 321-321 319-153 714-18 870 298 25 51 52 125 60 163 87 416-232 808-655 804-41 0-104-7-140-15zM6720 12024c-81-17-209-80-275-134-235-195-310-525-181-795 70-147 174-251 321-321 319-153 714-18 870 298 25 51 52 125 60 163 87 416-232 808-655 804-41 0-104-7-140-15zM11060 12024c-81-17-209-80-275-134-235-195-310-525-181-795 70-147 174-251 321-321 319-153 714-18 870 298 25 51 52 125 60 163 87 416-232 808-655 804-41 0-104-7-140-15zM15400 12024c-81-17-209-80-275-134-235-195-310-525-181-795 70-147 174-251 321-321 319-153 714-18 870 298 25 51 52 125 60 163 87 416-232 808-655 804-41 0-104-7-140-15zM19740 12024c-81-17-209-80-275-134-235-195-310-525-181-795 70-147 174-251 321-321 319-153 714-18 870 298 25 51 52 125 60 163 87 416-232 808-655 804-41 0-104-7-140-15zM24080 12024c-81-17-209-80-275-134-235-195-310-525-181-795 70-147 174-251 321-321 319-153 714-18 870 298 25 51 52 125 60 163 87 416-232 808-655 804-41 0-104-7-140-15zM28420 12024c-81-17-209-80-275-134-235-195-310-525-181-795 70-147 174-251 321-321 319-153 714-18 870 298 25 51 52 125 60 163 87 416-232 808-655 804-41 0-104-7-140-15zM32760 12024c-81-17-209-80-275-134-235-195-310-525-181-795 70-147 174-251 321-321 319-153 714-18 870 298 25 51 52 125 60 163 87 416-232 808-655 804-41 0-104-7-140-15zM2340 7684c-81-17-209-80-275-134-235-195-310-525-181-795 70-147 174-251 321-321 319-153 714-18 870 298 25 51 52 125 60 163 87 416-232 808-655 804-41 0-104-7-140-15zM6680 7684c-81-17-209-80-275-134-152-127-245-321-245-515 0-198 101-406 253-521 217-164 472-188 715-69 316 156 451 551 298 870-70 147-174 251-321 321-127 61-283 79-425 48zM11020 7684c-81-17-209-80-275-134-235-195-310-525-181-795 70-147 174-251 321-321 319-153 714-18 870 298 25 51 52 125 60 163 87 416-232 808-655 804-41 0-104-7-140-15zM15360 7684c-81-17-209-80-275-134-235-195-310-525-181-795 70-147 174-251 321-321 319-153 714-18 870 298 25 51 52 125 60 163 87 416-232 808-655 804-41 0-104-7-140-15zM19700 7684c-81-17-209-80-275-134-235-195-310-525-181-795 70-147 174-251 321-321 319-153 714-18 870 298 25 51 52 125 60 163 87 416-232 808-655 804-41 0-104-7-140-15zM24040 7684c-81-17-209-80-275-134-235-195-310-525-181-795 70-147 174-251 321-321 319-153 714-18 870 298 25 51 52 125 60 163 87 416-232 808-655 804-41 0-104-7-140-15zM28380 7684c-81-17-209-80-275-134-235-195-310-525-181-795 70-147 174-251 321-321 319-153 714-18 870 298 25 51 52 125 60 163 87 416-232 808-655 804-41 0-104-7-140-15zM32720 7684c-81-17-209-80-275-134-235-195-310-525-181-795 70-147 174-251 321-321 319-153 714-18 870 298 25 51 52 125 60 163 87 416-232 808-655 804-41 0-104-7-140-15zM2340 3344c-81-17-209-80-275-134-152-127-245-321-245-515 0-198 101-406 253-521 217-164 472-188 715-69 316 156 451 551 298 870-70 147-174 251-321 321-127 61-283 79-425 48zM6680 3344c-81-17-209-80-275-134-235-195-310-525-181-795 70-147 174-251 321-321 319-153 714-18 870 298 25 51 52 125 60 163 87 416-232 808-655 804-41 0-104-7-140-15zM11020 3344c-81-17-209-80-275-134-235-195-310-525-181-795 70-147 174-251 321-321 319-153 714-18 870 298 25 51 52 125 60 163 87 416-232 808-655 804-41 0-104-7-140-15zM15360 3344c-81-17-209-80-275-134-235-195-310-525-181-795 70-147 174-251 321-321 319-153 714-18 870 298 25 51 52 125 60 163 87 416-232 808-655 804-41 0-104-7-140-15zM19700 3344c-81-17-209-80-275-134-235-195-310-525-181-795 70-147 174-251 321-321 319-153 714-18 870 298 25 51 52 125 60 163 87 416-232 808-655 804-41 0-104-7-140-15zM24040 3344c-81-17-209-80-275-134-235-195-310-525-181-795 70-147 174-251 321-321 319-153 714-18 870 298 25 51 52 125 60 163 87 416-232 808-655 804-41 0-104-7-140-15zM28380 3344c-81-17-209-80-275-134-235-195-310-525-181-795 70-147 174-251 321-321 319-153 714-18 870 298 25 51 52 125 60 163 87 416-232 808-655 804-41 0-104-7-140-15zM32760 3344c-81-17-209-80-275-134-235-195-310-525-181-795 70-147 174-251 321-321 319-153 714-18 870 298 25 51 52 125 60 163 87 416-232 808-655 804-41 0-104-7-140-15z" fill="#ffffff" class="color000 svgShape"></path></g></svg></g></svg>