<svg id="SvgjsSvg1001" width="288" height="288" xmlns="http://www.w3.org/2000/svg" version="1.1" xmlns:xlink="http://www.w3.org/1999/xlink" xmlns:svgjs="http://svgjs.com/svgjs"><defs id="SvgjsDefs1002"></defs><g id="SvgjsG1008" transform="matrix(1,0,0,1,0,0)"><svg xmlns="http://www.w3.org/2000/svg" width="288" height="288" version="1.0" viewBox="0 0 2283 2283"><path d="M10890 22564 c-25 -2 -124 -8 -220 -14 -425 -27 -922 -90 -1365 -176-3252 -627 -6048 -2655 -7653 -5551 -731 -1318 -1194 -2799 -1341 -4293 -42
-422 -46 -523 -46 -1115 0 -592 4 -693 46 -1115 210 -2133 1049 -4188 2394
-5865 1875 -2339 4624 -3831 7595 -4124 422 -42 523 -46 1115 -46 592 0 693 4
1115 46 2971 293 5720 1785 7595 4124 1345 1677 2184 3732 2394 5865 42 422
46 523 46 1115 0 592 -4 693 -46 1115 -147 1494 -610 2975 -1341 4293 -1760
3175 -4948 5295 -8553 5687 -419 45 -562 52 -1135 55 -305 1 -575 1 -600 -1z
m1005 -2845 c1540 -84 3081 -626 4341 -1527 1327 -948 2324 -2224 2921 -3737
317 -801 506 -1659 563 -2545 23 -358 12 -928 -26 -1310 -165 -1682 -846
-3282 -1945 -4575 -531 -626 -1179 -1190 -1863 -1624 -1203 -764 -2545 -1199
-3976 -1291 -358 -23 -928 -12 -1310 26 -1682 165 -3282 846 -4575 1945 -626
531 -1190 1179 -1624 1863 -764 1203 -1199 2545 -1291 3976 -14 212 -14 778 0
990 92 1431 527 2773 1291 3976 434 684 998 1332 1624 1863 1104 939 2418
1567 3847 1840 654 125 1324 169 2023 130z" transform="matrix(.1 0 0 -.1 0 2283)" fill="#ffffff" class="color000 svgShape"></path></svg></g></svg>