<svg width="30" height="30" viewBox="0 0 30 30" fill="none" xmlns="http://www.w3.org/2000/svg">
<path d="M15 0.000976562C6.7166 0.000976562 0 6.71625 0 15.0003C0 23.2844 6.71594 29.9997 15 29.9997C23.2847 29.9997 30 23.2844 30 15.0003C30 6.71625 23.2847 0.000976562 15 0.000976562ZM15 4.48595C17.7409 4.48595 19.962 6.70769 19.962 9.4473C19.962 12.1876 17.7409 14.4086 15 14.4086C12.2604 14.4086 10.0393 12.1876 10.0393 9.4473C10.0393 6.70769 12.2604 4.48595 15 4.48595ZM14.9967 26.078C12.263 26.078 9.75929 25.0825 7.82812 23.4346C7.35768 23.0333 7.08623 22.445 7.08623 21.8276C7.08623 19.0491 9.33497 16.8254 12.1141 16.8254H17.8872C20.667 16.8254 22.9072 19.0491 22.9072 21.8276C22.9072 22.4456 22.637 23.0327 22.1659 23.4339C20.2354 25.0825 17.731 26.078 14.9967 26.078Z" fill="black"/>
</svg>
